%TF.GenerationSoftware,KiCad,Pcbnew,9.0.0*%
%TF.CreationDate,2025-06-16T14:41:11+03:00*%
%TF.ProjectId,ThorDrive_HW,54686f72-4472-4697-9665-5f48572e6b69,rev?*%
%TF.SameCoordinates,PX16c095cPY63de680*%
%TF.FileFunction,Legend,Bot*%
%TF.FilePolarity,Positive*%
%FSLAX46Y46*%
G04 Gerber Fmt 4.6, Leading zero omitted, Abs format (unit mm)*
G04 Created by KiCad (PCBNEW 9.0.0) date 2025-06-16 14:41:11*
%MOMM*%
%LPD*%
G01*
G04 APERTURE LIST*
%ADD10C,0.150000*%
%ADD11C,0.120000*%
G04 APERTURE END LIST*
D10*
X49079580Y38814167D02*
X49127200Y38861786D01*
X49127200Y38861786D02*
X49174819Y39004643D01*
X49174819Y39004643D02*
X49174819Y39099881D01*
X49174819Y39099881D02*
X49127200Y39242738D01*
X49127200Y39242738D02*
X49031961Y39337976D01*
X49031961Y39337976D02*
X48936723Y39385595D01*
X48936723Y39385595D02*
X48746247Y39433214D01*
X48746247Y39433214D02*
X48603390Y39433214D01*
X48603390Y39433214D02*
X48412914Y39385595D01*
X48412914Y39385595D02*
X48317676Y39337976D01*
X48317676Y39337976D02*
X48222438Y39242738D01*
X48222438Y39242738D02*
X48174819Y39099881D01*
X48174819Y39099881D02*
X48174819Y39004643D01*
X48174819Y39004643D02*
X48222438Y38861786D01*
X48222438Y38861786D02*
X48270057Y38814167D01*
X49174819Y38337976D02*
X49174819Y38147500D01*
X49174819Y38147500D02*
X49127200Y38052262D01*
X49127200Y38052262D02*
X49079580Y38004643D01*
X49079580Y38004643D02*
X48936723Y37909405D01*
X48936723Y37909405D02*
X48746247Y37861786D01*
X48746247Y37861786D02*
X48365295Y37861786D01*
X48365295Y37861786D02*
X48270057Y37909405D01*
X48270057Y37909405D02*
X48222438Y37957024D01*
X48222438Y37957024D02*
X48174819Y38052262D01*
X48174819Y38052262D02*
X48174819Y38242738D01*
X48174819Y38242738D02*
X48222438Y38337976D01*
X48222438Y38337976D02*
X48270057Y38385595D01*
X48270057Y38385595D02*
X48365295Y38433214D01*
X48365295Y38433214D02*
X48603390Y38433214D01*
X48603390Y38433214D02*
X48698628Y38385595D01*
X48698628Y38385595D02*
X48746247Y38337976D01*
X48746247Y38337976D02*
X48793866Y38242738D01*
X48793866Y38242738D02*
X48793866Y38052262D01*
X48793866Y38052262D02*
X48746247Y37957024D01*
X48746247Y37957024D02*
X48698628Y37909405D01*
X48698628Y37909405D02*
X48603390Y37861786D01*
D11*
%TO.C,R23*%
X54047936Y40725000D02*
X55502064Y40725000D01*
X54047936Y42545000D02*
X55502064Y42545000D01*
%TO.C,C9*%
X49665000Y38908752D02*
X49665000Y38386248D01*
X51135000Y38908752D02*
X51135000Y38386248D01*
%TO.C,C8*%
X28765000Y4183752D02*
X28765000Y3661248D01*
X30235000Y4183752D02*
X30235000Y3661248D01*
%TO.C,C7*%
X49918748Y53300000D02*
X50441252Y53300000D01*
X49918748Y51830000D02*
X50441252Y51830000D01*
%TO.C,R10*%
X56637064Y46840000D02*
X56182936Y46840000D01*
X56637064Y48310000D02*
X56182936Y48310000D01*
%TO.C,R22*%
X28090000Y16907936D02*
X28090000Y18362064D01*
X29910000Y16907936D02*
X29910000Y18362064D01*
%TO.C,R15*%
X26815000Y17237936D02*
X26815000Y17692064D01*
X25345000Y17237936D02*
X25345000Y17692064D01*
%TO.C,U4*%
X19625000Y71380000D02*
X21575000Y71380000D01*
X19625000Y71380000D02*
X17675000Y71380000D01*
X19625000Y62510000D02*
X21575000Y62510000D01*
X19625000Y62510000D02*
X17675000Y62510000D01*
X22325000Y71315000D02*
X22085000Y71645000D01*
X22565000Y71645000D01*
X22325000Y71315000D01*
G36*
X22325000Y71315000D02*
G01*
X22085000Y71645000D01*
X22565000Y71645000D01*
X22325000Y71315000D01*
G37*
%TO.C,R21*%
X14522936Y15525000D02*
X14977064Y15525000D01*
X14522936Y16995000D02*
X14977064Y16995000D01*
%TO.C,Y1*%
X13625000Y47435000D02*
X13625000Y52535000D01*
X13625000Y52535000D02*
X29600000Y52535000D01*
X29600000Y47435000D02*
X13625000Y47435000D01*
%TO.C,U3*%
X66815000Y17885000D02*
X66815000Y19835000D01*
X66815000Y17885000D02*
X66815000Y15935000D01*
X75685000Y17885000D02*
X75685000Y19835000D01*
X75685000Y17885000D02*
X75685000Y15935000D01*
X66880000Y20585000D02*
X66550000Y20345000D01*
X66550000Y20825000D01*
X66880000Y20585000D01*
G36*
X66880000Y20585000D02*
G01*
X66550000Y20345000D01*
X66550000Y20825000D01*
X66880000Y20585000D01*
G37*
%TO.C,U2*%
X84955000Y41760000D02*
X84955000Y39810000D01*
X84955000Y41760000D02*
X84955000Y43710000D01*
X76085000Y41760000D02*
X76085000Y39810000D01*
X76085000Y41760000D02*
X76085000Y43710000D01*
X85220000Y38820000D02*
X84890000Y39060000D01*
X85220000Y39300000D01*
X85220000Y38820000D01*
G36*
X85220000Y38820000D02*
G01*
X84890000Y39060000D01*
X85220000Y39300000D01*
X85220000Y38820000D01*
G37*
%TO.C,R14*%
X26875000Y10707936D02*
X26875000Y11162064D01*
X25405000Y10707936D02*
X25405000Y11162064D01*
%TO.C,R13*%
X37125000Y20367936D02*
X37125000Y20822064D01*
X35655000Y20367936D02*
X35655000Y20822064D01*
%TO.C,R12*%
X39615000Y20407936D02*
X39615000Y20862064D01*
X38145000Y20407936D02*
X38145000Y20862064D01*
%TO.C,R11*%
X42115000Y20437936D02*
X42115000Y20892064D01*
X40645000Y20437936D02*
X40645000Y20892064D01*
%TO.C,R9*%
X83485000Y26407936D02*
X83485000Y26862064D01*
X82015000Y26407936D02*
X82015000Y26862064D01*
%TO.C,R8*%
X79485000Y26407936D02*
X79485000Y26862064D01*
X78015000Y26407936D02*
X78015000Y26862064D01*
%TO.C,R7*%
X75735000Y26407936D02*
X75735000Y26862064D01*
X74265000Y26407936D02*
X74265000Y26862064D01*
%TO.C,R6*%
X86985000Y26407936D02*
X86985000Y26862064D01*
X85515000Y26407936D02*
X85515000Y26862064D01*
%TO.C,R5*%
X81410000Y17657936D02*
X81410000Y19112064D01*
X79590000Y17657936D02*
X79590000Y19112064D01*
%TO.C,R4*%
X83910000Y17657936D02*
X83910000Y19112064D01*
X82090000Y17657936D02*
X82090000Y19112064D01*
%TO.C,R3*%
X77090000Y19112064D02*
X77090000Y17657936D01*
X78910000Y19112064D02*
X78910000Y17657936D01*
%TO.C,R2*%
X33710000Y75657936D02*
X33710000Y77112064D01*
X31890000Y75657936D02*
X31890000Y77112064D01*
%TO.C,R1*%
X22727064Y46995000D02*
X21272936Y46995000D01*
X22727064Y45175000D02*
X21272936Y45175000D01*
%TO.C,C6*%
X83485000Y31123748D02*
X83485000Y31646252D01*
X82015000Y31123748D02*
X82015000Y31646252D01*
%TO.C,C5*%
X79485000Y31123748D02*
X79485000Y31646252D01*
X78015000Y31123748D02*
X78015000Y31646252D01*
%TO.C,C4*%
X75735000Y31123748D02*
X75735000Y31646252D01*
X74265000Y31123748D02*
X74265000Y31646252D01*
%TO.C,C3*%
X86985000Y31123748D02*
X86985000Y31646252D01*
X85515000Y31123748D02*
X85515000Y31646252D01*
%TO.C,C2*%
X18073752Y54420000D02*
X17551248Y54420000D01*
X18073752Y52950000D02*
X17551248Y52950000D01*
%TO.C,C1*%
X30298748Y52930000D02*
X30821252Y52930000D01*
X30298748Y54400000D02*
X30821252Y54400000D01*
%TO.C,R19*%
X14622936Y26975000D02*
X15077064Y26975000D01*
X14622936Y28445000D02*
X15077064Y28445000D01*
%TO.C,R18*%
X14572936Y31320000D02*
X15027064Y31320000D01*
X14572936Y29850000D02*
X15027064Y29850000D01*
%TO.C,R17*%
X14522936Y35945000D02*
X14977064Y35945000D01*
X14522936Y34475000D02*
X14977064Y34475000D01*
%TO.C,R16*%
X14772936Y40545000D02*
X15227064Y40545000D01*
X14772936Y39075000D02*
X15227064Y39075000D01*
%TO.C,R20*%
X14747936Y22925000D02*
X15202064Y22925000D01*
X14747936Y24395000D02*
X15202064Y24395000D01*
%TD*%
M02*
