%TF.GenerationSoftware,KiCad,Pcbnew,9.0.0*%
%TF.CreationDate,2025-06-16T14:41:11+03:00*%
%TF.ProjectId,ThorDrive_HW,54686f72-4472-4697-9665-5f48572e6b69,rev?*%
%TF.SameCoordinates,PX16c095cPY63de680*%
%TF.FileFunction,Copper,L1,Top*%
%TF.FilePolarity,Positive*%
%FSLAX46Y46*%
G04 Gerber Fmt 4.6, Leading zero omitted, Abs format (unit mm)*
G04 Created by KiCad (PCBNEW 9.0.0) date 2025-06-16 14:41:11*
%MOMM*%
%LPD*%
G01*
G04 APERTURE LIST*
G04 Aperture macros list*
%AMRoundRect*
0 Rectangle with rounded corners*
0 $1 Rounding radius*
0 $2 $3 $4 $5 $6 $7 $8 $9 X,Y pos of 4 corners*
0 Add a 4 corners polygon primitive as box body*
4,1,4,$2,$3,$4,$5,$6,$7,$8,$9,$2,$3,0*
0 Add four circle primitives for the rounded corners*
1,1,$1+$1,$2,$3*
1,1,$1+$1,$4,$5*
1,1,$1+$1,$6,$7*
1,1,$1+$1,$8,$9*
0 Add four rect primitives between the rounded corners*
20,1,$1+$1,$2,$3,$4,$5,0*
20,1,$1+$1,$4,$5,$6,$7,0*
20,1,$1+$1,$6,$7,$8,$9,0*
20,1,$1+$1,$8,$9,$2,$3,0*%
G04 Aperture macros list end*
%TA.AperFunction,ComponentPad*%
%ADD10RoundRect,0.250000X0.750000X-0.600000X0.750000X0.600000X-0.750000X0.600000X-0.750000X-0.600000X0*%
%TD*%
%TA.AperFunction,ComponentPad*%
%ADD11O,2.000000X1.700000*%
%TD*%
%TA.AperFunction,ComponentPad*%
%ADD12C,1.508000*%
%TD*%
%TA.AperFunction,ComponentPad*%
%ADD13RoundRect,0.250000X0.725000X-0.600000X0.725000X0.600000X-0.725000X0.600000X-0.725000X-0.600000X0*%
%TD*%
%TA.AperFunction,ComponentPad*%
%ADD14O,1.950000X1.700000*%
%TD*%
%TA.AperFunction,ComponentPad*%
%ADD15R,1.800000X1.800000*%
%TD*%
%TA.AperFunction,ComponentPad*%
%ADD16C,1.800000*%
%TD*%
%TA.AperFunction,ComponentPad*%
%ADD17C,2.340000*%
%TD*%
%TA.AperFunction,ComponentPad*%
%ADD18O,1.700000X1.700000*%
%TD*%
%TA.AperFunction,ComponentPad*%
%ADD19R,1.700000X1.700000*%
%TD*%
%TA.AperFunction,ComponentPad*%
%ADD20C,1.500000*%
%TD*%
%TA.AperFunction,ComponentPad*%
%ADD21RoundRect,0.250000X-0.550000X-0.550000X0.550000X-0.550000X0.550000X0.550000X-0.550000X0.550000X0*%
%TD*%
%TA.AperFunction,ComponentPad*%
%ADD22C,1.600000*%
%TD*%
%TA.AperFunction,ComponentPad*%
%ADD23RoundRect,0.250000X-0.600000X-0.725000X0.600000X-0.725000X0.600000X0.725000X-0.600000X0.725000X0*%
%TD*%
%TA.AperFunction,ComponentPad*%
%ADD24O,1.700000X1.950000*%
%TD*%
%TA.AperFunction,ComponentPad*%
%ADD25RoundRect,0.250000X0.600000X0.725000X-0.600000X0.725000X-0.600000X-0.725000X0.600000X-0.725000X0*%
%TD*%
%TA.AperFunction,ViaPad*%
%ADD26C,2.000000*%
%TD*%
%TA.AperFunction,Conductor*%
%ADD27C,0.500000*%
%TD*%
G04 APERTURE END LIST*
D10*
%TO.P,J13,1,Pin_1*%
%TO.N,+5V*%
X62050000Y35560000D03*
D11*
%TO.P,J13,2,Pin_2*%
%TO.N,Net-(J13-Pin_2)*%
X62050000Y38060000D03*
%TD*%
D12*
%TO.P,SW3,1,1*%
%TO.N,Net-(J13-Pin_2)*%
X56350000Y38949500D03*
%TO.P,SW3,2,2*%
%TO.N,+5V*%
X56350000Y33949500D03*
%TD*%
D13*
%TO.P,J4,1,Pin_1*%
%TO.N,GND*%
X21842500Y22295000D03*
D14*
%TO.P,J4,2,Pin_2*%
%TO.N,Fault*%
X21842500Y24795000D03*
%TO.P,J4,3,Pin_3*%
%TO.N,{slash}Logic_CL*%
X21842500Y27295000D03*
%TO.P,J4,4,Pin_4*%
%TO.N,{slash}Logic_BL*%
X21842500Y29795000D03*
%TO.P,J4,5,Pin_5*%
%TO.N,{slash}Logic_AL*%
X21842500Y32295000D03*
%TO.P,J4,6,Pin_6*%
%TO.N,{slash}Logic_CH*%
X21842500Y34795000D03*
%TO.P,J4,7,Pin_7*%
%TO.N,{slash}Logic_BH*%
X21842500Y37295000D03*
%TO.P,J4,8,Pin_8*%
%TO.N,{slash}Logic_AH*%
X21842500Y39795000D03*
%TD*%
D15*
%TO.P,D7,1,K*%
%TO.N,Net-(D7-K)*%
X11350000Y39810000D03*
D16*
%TO.P,D7,2,A*%
%TO.N,+5V*%
X8810000Y39810000D03*
%TD*%
%TO.P,D1,2,A*%
%TO.N,Net-(D1-A)*%
X62270000Y44135000D03*
D15*
%TO.P,D1,1,K*%
%TO.N,Net-(D1-K)*%
X59730000Y44135000D03*
%TD*%
D14*
%TO.P,J10,3,Pin_3*%
%TO.N,GND*%
X55500000Y58135000D03*
%TO.P,J10,2,Pin_2*%
%TO.N,pot*%
X55500000Y55635000D03*
D13*
%TO.P,J10,1,Pin_1*%
%TO.N,+5V*%
X55500000Y53135000D03*
%TD*%
D17*
%TO.P,RV2,3,3*%
%TO.N,GND*%
X81850000Y61935000D03*
%TO.P,RV2,2,2*%
%TO.N,pot*%
X81850000Y56935000D03*
%TO.P,RV2,1,1*%
%TO.N,+5V*%
X81850000Y51935000D03*
%TD*%
D14*
%TO.P,J2,6,Pin_6*%
%TO.N,PhaseA voltage*%
X58042500Y26645000D03*
%TO.P,J2,5,Pin_5*%
%TO.N,PhaseA current*%
X58042500Y24145000D03*
%TO.P,J2,4,Pin_4*%
%TO.N,PhaseB voltage*%
X58042500Y21645000D03*
%TO.P,J2,3,Pin_3*%
%TO.N,PhaseB current*%
X58042500Y19145000D03*
%TO.P,J2,2,Pin_2*%
%TO.N,PhaseC voltage*%
X58042500Y16645000D03*
D13*
%TO.P,J2,1,Pin_1*%
%TO.N,GND*%
X58042500Y14145000D03*
%TD*%
D18*
%TO.P,J7,6,Pin_6*%
%TO.N,GND*%
X62695000Y13945000D03*
%TO.P,J7,5,Pin_5*%
%TO.N,PhaseC voltage*%
X62695000Y16485000D03*
%TO.P,J7,4,Pin_4*%
%TO.N,PhaseB current*%
X62695000Y19025000D03*
%TO.P,J7,3,Pin_3*%
%TO.N,PhaseB voltage*%
X62695000Y21565000D03*
%TO.P,J7,2,Pin_2*%
%TO.N,PhaseA current*%
X62695000Y24105000D03*
D19*
%TO.P,J7,1,Pin_1*%
%TO.N,PhaseA voltage*%
X62695000Y26645000D03*
%TD*%
%TO.P,J9,1,Pin_1*%
%TO.N,TX*%
X28700000Y69745000D03*
D18*
%TO.P,J9,2,Pin_2*%
%TO.N,RX*%
X28700000Y72285000D03*
%TO.P,J9,3,Pin_3*%
%TO.N,+5V*%
X28700000Y74825000D03*
%TO.P,J9,4,Pin_4*%
%TO.N,GND*%
X28700000Y77365000D03*
%TD*%
D15*
%TO.P,D6,1,K*%
%TO.N,Net-(D6-K)*%
X23390000Y16375000D03*
D16*
%TO.P,D6,2,A*%
%TO.N,+5V*%
X20850000Y16375000D03*
%TD*%
%TO.P,D11,2,A*%
%TO.N,+5V*%
X8780000Y21085000D03*
D15*
%TO.P,D11,1,K*%
%TO.N,Net-(D11-K)*%
X11320000Y21085000D03*
%TD*%
D16*
%TO.P,D9,2,A*%
%TO.N,+5V*%
X8805000Y30510000D03*
D15*
%TO.P,D9,1,K*%
%TO.N,Net-(D9-K)*%
X11345000Y30510000D03*
%TD*%
D16*
%TO.P,D8,2,A*%
%TO.N,+5V*%
X8810000Y35235000D03*
D15*
%TO.P,D8,1,K*%
%TO.N,Net-(D8-K)*%
X11350000Y35235000D03*
%TD*%
D16*
%TO.P,D10,2,A*%
%TO.N,+5V*%
X8810000Y25810000D03*
D15*
%TO.P,D10,1,K*%
%TO.N,Net-(D10-K)*%
X11350000Y25810000D03*
%TD*%
D18*
%TO.P,J5,8,Pin_8*%
%TO.N,GND*%
X26500000Y22005000D03*
%TO.P,J5,7,Pin_7*%
%TO.N,Fault*%
X26500000Y24545000D03*
%TO.P,J5,6,Pin_6*%
%TO.N,{slash}Logic_CL*%
X26500000Y27085000D03*
%TO.P,J5,5,Pin_5*%
%TO.N,{slash}Logic_BL*%
X26500000Y29625000D03*
%TO.P,J5,4,Pin_4*%
%TO.N,{slash}Logic_AL*%
X26500000Y32165000D03*
%TO.P,J5,3,Pin_3*%
%TO.N,{slash}Logic_CH*%
X26500000Y34705000D03*
%TO.P,J5,2,Pin_2*%
%TO.N,{slash}Logic_BH*%
X26500000Y37245000D03*
D19*
%TO.P,J5,1,Pin_1*%
%TO.N,{slash}Logic_AH*%
X26500000Y39785000D03*
%TD*%
D16*
%TO.P,D12,2,A*%
%TO.N,+5V*%
X8785000Y16260000D03*
D15*
%TO.P,D12,1,K*%
%TO.N,Net-(D12-K)*%
X11325000Y16260000D03*
%TD*%
D20*
%TO.P,Y2,1,1*%
%TO.N,Net-(U1-XTAL2{slash}PB7)*%
X21400000Y53585000D03*
%TO.P,Y2,2,2*%
%TO.N,Net-(U1-XTAL1{slash}PB6)*%
X26280000Y53585000D03*
%TD*%
D21*
%TO.P,U1,1,~{RESET}/PC6*%
%TO.N,Net-(U1-~{RESET}{slash}PC6)*%
X35480000Y70285000D03*
D22*
%TO.P,U1,2,PD0*%
%TO.N,RX*%
X35480000Y67745000D03*
%TO.P,U1,3,PD1*%
%TO.N,TX*%
X35480000Y65205000D03*
%TO.P,U1,4,PD2*%
%TO.N,MCU_AH*%
X35480000Y62665000D03*
%TO.P,U1,5,PD3*%
%TO.N,MCU_BH*%
X35480000Y60125000D03*
%TO.P,U1,6,PD4*%
%TO.N,MCU_CH*%
X35480000Y57585000D03*
%TO.P,U1,7,VCC*%
%TO.N,+5V*%
X35480000Y55045000D03*
%TO.P,U1,8,GND*%
%TO.N,GND*%
X35480000Y52505000D03*
%TO.P,U1,9,XTAL1/PB6*%
%TO.N,Net-(U1-XTAL1{slash}PB6)*%
X35480000Y49965000D03*
%TO.P,U1,10,XTAL2/PB7*%
%TO.N,Net-(U1-XTAL2{slash}PB7)*%
X35480000Y47425000D03*
%TO.P,U1,11,PD5*%
%TO.N,{slash}Logic_AL*%
X35480000Y44885000D03*
%TO.P,U1,12,PD6*%
%TO.N,{slash}Logic_BL*%
X35480000Y42345000D03*
%TO.P,U1,13,PD7*%
%TO.N,{slash}Logic_CL*%
X35480000Y39805000D03*
%TO.P,U1,14,PB0*%
%TO.N,HallA*%
X35480000Y37265000D03*
%TO.P,U1,15,PB1*%
%TO.N,HallB*%
X43100000Y37265000D03*
%TO.P,U1,16,PB2*%
%TO.N,HallC*%
X43100000Y39805000D03*
%TO.P,U1,17,PB3*%
%TO.N,speed*%
X43100000Y42345000D03*
%TO.P,U1,18,PB4*%
%TO.N,CTRL_BUTT*%
X43100000Y44885000D03*
%TO.P,U1,19,PB5*%
%TO.N,Net-(D1-K)*%
X43100000Y47425000D03*
%TO.P,U1,20,AVCC*%
%TO.N,+5V*%
X43100000Y49965000D03*
%TO.P,U1,21,AREF*%
%TO.N,AREF*%
X43100000Y52505000D03*
%TO.P,U1,22,GND*%
%TO.N,GND*%
X43100000Y55045000D03*
%TO.P,U1,23,PC0*%
%TO.N,pot*%
X43100000Y57585000D03*
%TO.P,U1,24,PC1*%
%TO.N,emfZCD_A*%
X43100000Y60125000D03*
%TO.P,U1,25,PC2*%
%TO.N,emfZCD_B*%
X43100000Y62665000D03*
%TO.P,U1,26,PC3*%
%TO.N,emfZCS_C*%
X43100000Y65205000D03*
%TO.P,U1,27,PC4*%
%TO.N,PhaseA current*%
X43100000Y67745000D03*
%TO.P,U1,28,PC5*%
%TO.N,PhaseB current*%
X43100000Y70285000D03*
%TD*%
D12*
%TO.P,SW1,1,1*%
%TO.N,Net-(U1-~{RESET}{slash}PC6)*%
X11500000Y70615000D03*
%TO.P,SW1,2,2*%
%TO.N,GND*%
X11500000Y65615000D03*
%TD*%
D19*
%TO.P,J8,1,Pin_1*%
%TO.N,emfZCD_A*%
X59750000Y66345000D03*
D18*
%TO.P,J8,2,Pin_2*%
%TO.N,emfZCD_B*%
X59750000Y68885000D03*
%TO.P,J8,3,Pin_3*%
%TO.N,emfZCS_C*%
X59750000Y71425000D03*
%TO.P,J8,4,Pin_4*%
%TO.N,GND*%
X59750000Y73965000D03*
%TD*%
D19*
%TO.P,J6,1,Pin_1*%
%TO.N,HallA*%
X36317500Y28820000D03*
D18*
%TO.P,J6,2,Pin_2*%
%TO.N,HallB*%
X38857500Y28820000D03*
%TO.P,J6,3,Pin_3*%
%TO.N,HallC*%
X41397500Y28820000D03*
%TO.P,J6,4,Pin_4*%
%TO.N,GND*%
X43937500Y28820000D03*
%TD*%
D23*
%TO.P,J3,1,Pin_1*%
%TO.N,GND*%
X34592500Y4420000D03*
D24*
%TO.P,J3,2,Pin_2*%
%TO.N,+3.3V*%
X37092500Y4420000D03*
%TO.P,J3,3,Pin_3*%
%TO.N,+5V*%
X39592500Y4420000D03*
%TD*%
D25*
%TO.P,J1,1,Pin_1*%
%TO.N,GND*%
X43942500Y24045000D03*
D24*
%TO.P,J1,2,Pin_2*%
%TO.N,HallC*%
X41442500Y24045000D03*
%TO.P,J1,3,Pin_3*%
%TO.N,HallB*%
X38942500Y24045000D03*
%TO.P,J1,4,Pin_4*%
%TO.N,HallA*%
X36442500Y24045000D03*
%TD*%
D15*
%TO.P,D5,1,K*%
%TO.N,Net-(D5-K)*%
X23380000Y9915000D03*
D16*
%TO.P,D5,2,A*%
%TO.N,+5V*%
X20840000Y9915000D03*
%TD*%
D15*
%TO.P,D4,1,K*%
%TO.N,Net-(D4-K)*%
X39450000Y17045000D03*
D16*
%TO.P,D4,2,A*%
%TO.N,+5V*%
X39450000Y14505000D03*
%TD*%
D15*
%TO.P,D3,1,K*%
%TO.N,Net-(D3-K)*%
X44310000Y17025000D03*
D16*
%TO.P,D3,2,A*%
%TO.N,+5V*%
X44310000Y14485000D03*
%TD*%
D15*
%TO.P,D2,1,K*%
%TO.N,Net-(D2-K)*%
X34690000Y17055000D03*
D16*
%TO.P,D2,2,A*%
%TO.N,+5V*%
X34690000Y14515000D03*
%TD*%
D26*
%TO.N,+5V*%
X47320000Y32085000D03*
%TO.N,GND*%
X66700000Y35485000D03*
X74600000Y35685000D03*
X92700000Y35385000D03*
X85600000Y35585000D03*
%TO.N,emfZCD_B*%
X72500000Y69085000D03*
%TO.N,emfZCD_A*%
X74700000Y66385000D03*
%TO.N,emfZCS_C*%
X86300000Y71385000D03*
X86400000Y39185000D03*
%TO.N,emfZCD_A*%
X74700000Y44185000D03*
%TO.N,emfZCD_B*%
X72600000Y39385000D03*
%TO.N,+5V*%
X80100000Y7085000D03*
X80100000Y36485000D03*
X68500000Y7135000D03*
X68500000Y25135000D03*
%TO.N,PhaseB current*%
X50000000Y19135000D03*
X50000000Y70385000D03*
%TO.N,PhaseA current*%
X52750000Y67885000D03*
X52750000Y24135000D03*
%TO.N,GND*%
X19310000Y57885000D03*
%TO.N,+5V*%
X47320000Y14495000D03*
X47360000Y7135000D03*
X47320000Y50045000D03*
X17060000Y7035000D03*
X17130000Y76775000D03*
X10010000Y13015000D03*
X9970000Y6995000D03*
X33220000Y9365000D03*
X33230000Y55765000D03*
%TO.N,{slash}Logic_CH*%
X6890000Y63135000D03*
%TO.N,{slash}Logic_BH*%
X29190000Y38675000D03*
%TO.N,{slash}Logic_CH*%
X7000000Y32895000D03*
%TO.N,{slash}Logic_AH*%
X30720000Y45105000D03*
X30640000Y62105000D03*
%TO.N,{slash}Logic_BH*%
X26350000Y59215000D03*
%TO.N,GND*%
X21810000Y61425000D03*
%TD*%
D27*
%TO.N,+5V*%
X47320000Y32085000D02*
X47320000Y50045000D01*
X47320000Y32085000D02*
X47320000Y14495000D01*
%TO.N,GND*%
X92500000Y35585000D02*
X92700000Y35385000D01*
X85600000Y35585000D02*
X92500000Y35585000D01*
X66700000Y35485000D02*
X74400000Y35485000D01*
X74400000Y35485000D02*
X74600000Y35685000D01*
%TO.N,emfZCS_C*%
X86300000Y39285000D02*
X86400000Y39185000D01*
X86300000Y71385000D02*
X86300000Y39285000D01*
%TO.N,emfZCD_B*%
X72500000Y39485000D02*
X72600000Y39385000D01*
X72500000Y69085000D02*
X72500000Y39485000D01*
X72300000Y68885000D02*
X72500000Y69085000D01*
%TO.N,emfZCD_A*%
X74700000Y66385000D02*
X74700000Y44185000D01*
%TO.N,+5V*%
X80100000Y36485000D02*
X80100000Y7085000D01*
X68500000Y25135000D02*
X68500000Y7135000D01*
%TO.N,PhaseB current*%
X50000000Y70385000D02*
X50000000Y19135000D01*
%TO.N,PhaseA current*%
X52750000Y24135000D02*
X52750000Y67885000D01*
%TO.N,+5V*%
X32350000Y54885000D02*
X32350000Y10235000D01*
X32350000Y10235000D02*
X33220000Y9365000D01*
X33230000Y55765000D02*
X32350000Y54885000D01*
%TO.N,GND*%
X21810000Y60385000D02*
X19310000Y57885000D01*
X21810000Y61425000D02*
X21810000Y60385000D01*
%TO.N,+5V*%
X47320000Y14495000D02*
X47320000Y7175000D01*
X9970000Y10835000D02*
X9970000Y6995000D01*
X10010000Y10875000D02*
X9970000Y10835000D01*
X10010000Y13015000D02*
X10010000Y10875000D01*
X17130000Y76775000D02*
X17130000Y7105000D01*
X47320000Y7175000D02*
X47360000Y7135000D01*
X17130000Y7105000D02*
X17060000Y7035000D01*
%TO.N,{slash}Logic_CH*%
X7000000Y61865000D02*
X7000000Y32895000D01*
X6890000Y61975000D02*
X7000000Y61865000D01*
X6890000Y63135000D02*
X6890000Y61975000D01*
%TO.N,{slash}Logic_BH*%
X29190000Y56375000D02*
X26350000Y59215000D01*
X29190000Y38675000D02*
X29190000Y56375000D01*
%TO.N,{slash}Logic_AH*%
X30670000Y62075000D02*
X30640000Y62105000D01*
X30670000Y45385000D02*
X30670000Y62075000D01*
X30720000Y45335000D02*
X30670000Y45385000D01*
X30720000Y45105000D02*
X30720000Y45335000D01*
%TD*%
M02*
