M48
; DRILL file {KiCad 9.0.0} date 2025-06-16T14:41:45+0300
; FORMAT={-:-/ absolute / metric / decimal}
; #@! TF.CreationDate,2025-06-16T14:41:45+03:00
; #@! TF.GenerationSoftware,Kicad,Pcbnew,9.0.0
; #@! TF.FileFunction,MixedPlating,1,2
FMAT,2
METRIC
; #@! TA.AperFunction,Plated,PTH,ComponentDrill
T1C0.800
; #@! TA.AperFunction,Plated,PTH,ComponentDrill
T2C0.900
; #@! TA.AperFunction,Plated,PTH,ComponentDrill
T3C0.950
; #@! TA.AperFunction,Plated,PTH,ViaDrill
T4C1.000
; #@! TA.AperFunction,Plated,PTH,ComponentDrill
T5C1.000
; #@! TA.AperFunction,Plated,PTH,ComponentDrill
T6C1.300
; #@! TA.AperFunction,NonPlated,NPTH,ComponentDrill
T7C3.200
%
G90
G05
T1
X21.4Y53.585
X26.28Y53.585
X35.48Y70.285
X35.48Y67.745
X35.48Y65.205
X35.48Y62.665
X35.48Y60.125
X35.48Y57.585
X35.48Y55.045
X35.48Y52.505
X35.48Y49.965
X35.48Y47.425
X35.48Y44.885
X35.48Y42.345
X35.48Y39.805
X35.48Y37.265
X43.1Y70.285
X43.1Y67.745
X43.1Y65.205
X43.1Y62.665
X43.1Y60.125
X43.1Y57.585
X43.1Y55.045
X43.1Y52.505
X43.1Y49.965
X43.1Y47.425
X43.1Y44.885
X43.1Y42.345
X43.1Y39.805
X43.1Y37.265
T2
X8.78Y21.085
X8.785Y16.26
X8.805Y30.51
X8.81Y39.81
X8.81Y35.235
X8.81Y25.81
X11.32Y21.085
X11.325Y16.26
X11.345Y30.51
X11.35Y39.81
X11.35Y35.235
X11.35Y25.81
X20.84Y9.915
X20.85Y16.375
X23.38Y9.915
X23.39Y16.375
X34.69Y17.055
X34.69Y14.515
X39.45Y17.045
X39.45Y14.505
X44.31Y17.025
X44.31Y14.485
X59.73Y44.135
X62.27Y44.135
T3
X21.842Y39.795
X21.842Y37.295
X21.842Y34.795
X21.842Y32.295
X21.842Y29.795
X21.842Y27.295
X21.842Y24.795
X21.842Y22.295
X34.593Y4.42
X36.442Y24.045
X37.093Y4.42
X38.942Y24.045
X39.593Y4.42
X41.442Y24.045
X43.942Y24.045
X55.5Y58.135
X55.5Y55.635
X55.5Y53.135
X58.042Y26.645
X58.042Y24.145
X58.042Y21.645
X58.042Y19.145
X58.042Y16.645
X58.042Y14.145
T4
X6.89Y63.135
X7.0Y32.895
X9.97Y6.995
X10.01Y13.015
X17.06Y7.035
X17.13Y76.775
X19.31Y57.885
X21.81Y61.425
X26.35Y59.215
X29.19Y38.675
X30.64Y62.105
X30.72Y45.105
X33.22Y9.365
X33.23Y55.765
X47.32Y50.045
X47.32Y32.085
X47.32Y14.495
X47.36Y7.135
X50.0Y70.385
X50.0Y19.135
X52.75Y67.885
X52.75Y24.135
X66.7Y35.485
X68.5Y25.135
X68.5Y7.135
X72.5Y69.085
X72.6Y39.385
X74.6Y35.685
X74.7Y66.385
X74.7Y44.185
X80.1Y36.485
X80.1Y7.085
X85.6Y35.585
X86.3Y71.385
X86.4Y39.185
X92.7Y35.385
T5
X11.5Y70.615
X11.5Y65.615
X26.5Y39.785
X26.5Y37.245
X26.5Y34.705
X26.5Y32.165
X26.5Y29.625
X26.5Y27.085
X26.5Y24.545
X26.5Y22.005
X28.7Y77.365
X28.7Y74.825
X28.7Y72.285
X28.7Y69.745
X36.317Y28.82
X38.858Y28.82
X41.398Y28.82
X43.938Y28.82
X56.35Y38.95
X56.35Y33.95
X59.75Y73.965
X59.75Y71.425
X59.75Y68.885
X59.75Y66.345
X62.05Y38.06
X62.05Y35.56
X62.695Y26.645
X62.695Y24.105
X62.695Y21.565
X62.695Y19.025
X62.695Y16.485
X62.695Y13.945
T6
X81.85Y61.935
X81.85Y56.935
X81.85Y51.935
T7
X3.95Y3.81
X4.075Y79.36
X94.825Y3.785
X94.85Y79.51
M30
