%TF.GenerationSoftware,KiCad,Pcbnew,9.0.0*%
%TF.CreationDate,2025-06-16T14:41:11+03:00*%
%TF.ProjectId,ThorDrive_HW,54686f72-4472-4697-9665-5f48572e6b69,rev?*%
%TF.SameCoordinates,PX16c095cPY63de680*%
%TF.FileFunction,Paste,Bot*%
%TF.FilePolarity,Positive*%
%FSLAX46Y46*%
G04 Gerber Fmt 4.6, Leading zero omitted, Abs format (unit mm)*
G04 Created by KiCad (PCBNEW 9.0.0) date 2025-06-16 14:41:11*
%MOMM*%
%LPD*%
G01*
G04 APERTURE LIST*
G04 Aperture macros list*
%AMRoundRect*
0 Rectangle with rounded corners*
0 $1 Rounding radius*
0 $2 $3 $4 $5 $6 $7 $8 $9 X,Y pos of 4 corners*
0 Add a 4 corners polygon primitive as box body*
4,1,4,$2,$3,$4,$5,$6,$7,$8,$9,$2,$3,0*
0 Add four circle primitives for the rounded corners*
1,1,$1+$1,$2,$3*
1,1,$1+$1,$4,$5*
1,1,$1+$1,$6,$7*
1,1,$1+$1,$8,$9*
0 Add four rect primitives between the rounded corners*
20,1,$1+$1,$2,$3,$4,$5,0*
20,1,$1+$1,$4,$5,$6,$7,0*
20,1,$1+$1,$6,$7,$8,$9,0*
20,1,$1+$1,$8,$9,$2,$3,0*%
G04 Aperture macros list end*
%ADD10RoundRect,0.250000X-0.400000X-0.625000X0.400000X-0.625000X0.400000X0.625000X-0.400000X0.625000X0*%
%ADD11RoundRect,0.250000X-0.475000X0.337500X-0.475000X-0.337500X0.475000X-0.337500X0.475000X0.337500X0*%
%ADD12RoundRect,0.250000X-0.337500X-0.475000X0.337500X-0.475000X0.337500X0.475000X-0.337500X0.475000X0*%
%ADD13RoundRect,0.250000X0.350000X0.450000X-0.350000X0.450000X-0.350000X-0.450000X0.350000X-0.450000X0*%
%ADD14RoundRect,0.250000X0.625000X-0.400000X0.625000X0.400000X-0.625000X0.400000X-0.625000X-0.400000X0*%
%ADD15RoundRect,0.250000X0.450000X-0.350000X0.450000X0.350000X-0.450000X0.350000X-0.450000X-0.350000X0*%
%ADD16RoundRect,0.150000X0.825000X0.150000X-0.825000X0.150000X-0.825000X-0.150000X0.825000X-0.150000X0*%
%ADD17RoundRect,0.250000X-0.350000X-0.450000X0.350000X-0.450000X0.350000X0.450000X-0.350000X0.450000X0*%
%ADD18R,7.875000X2.000000*%
%ADD19RoundRect,0.150000X-0.150000X0.825000X-0.150000X-0.825000X0.150000X-0.825000X0.150000X0.825000X0*%
%ADD20RoundRect,0.150000X0.150000X-0.825000X0.150000X0.825000X-0.150000X0.825000X-0.150000X-0.825000X0*%
%ADD21RoundRect,0.250000X-0.625000X0.400000X-0.625000X-0.400000X0.625000X-0.400000X0.625000X0.400000X0*%
%ADD22RoundRect,0.250000X0.400000X0.625000X-0.400000X0.625000X-0.400000X-0.625000X0.400000X-0.625000X0*%
%ADD23RoundRect,0.250000X0.475000X-0.337500X0.475000X0.337500X-0.475000X0.337500X-0.475000X-0.337500X0*%
%ADD24RoundRect,0.250000X0.337500X0.475000X-0.337500X0.475000X-0.337500X-0.475000X0.337500X-0.475000X0*%
G04 APERTURE END LIST*
D10*
%TO.C,R23*%
X53225000Y41635000D03*
X56325000Y41635000D03*
%TD*%
D11*
%TO.C,C9*%
X50400000Y39685000D03*
X50400000Y37610000D03*
%TD*%
%TO.C,C8*%
X29500000Y4960000D03*
X29500000Y2885000D03*
%TD*%
D12*
%TO.C,C7*%
X51217500Y52565000D03*
X49142500Y52565000D03*
%TD*%
D13*
%TO.C,R10*%
X55410000Y47575000D03*
X57410000Y47575000D03*
%TD*%
D14*
%TO.C,R22*%
X29000000Y19185000D03*
X29000000Y16085000D03*
%TD*%
D15*
%TO.C,R15*%
X26080000Y16465000D03*
X26080000Y18465000D03*
%TD*%
D16*
%TO.C,U4*%
X22100000Y70755000D03*
X22100000Y69485000D03*
X22100000Y68215000D03*
X22100000Y66945000D03*
X22100000Y65675000D03*
X22100000Y64405000D03*
X22100000Y63135000D03*
X17150000Y63135000D03*
X17150000Y64405000D03*
X17150000Y65675000D03*
X17150000Y66945000D03*
X17150000Y68215000D03*
X17150000Y69485000D03*
X17150000Y70755000D03*
%TD*%
D17*
%TO.C,R21*%
X13750000Y16260000D03*
X15750000Y16260000D03*
%TD*%
D18*
%TO.C,Y1*%
X17762500Y49985000D03*
X29637500Y49985000D03*
%TD*%
D19*
%TO.C,U3*%
X67440000Y20360000D03*
X68710000Y20360000D03*
X69980000Y20360000D03*
X71250000Y20360000D03*
X72520000Y20360000D03*
X73790000Y20360000D03*
X75060000Y20360000D03*
X75060000Y15410000D03*
X73790000Y15410000D03*
X72520000Y15410000D03*
X71250000Y15410000D03*
X69980000Y15410000D03*
X68710000Y15410000D03*
X67440000Y15410000D03*
%TD*%
D20*
%TO.C,U2*%
X84330000Y39285000D03*
X83060000Y39285000D03*
X81790000Y39285000D03*
X80520000Y39285000D03*
X79250000Y39285000D03*
X77980000Y39285000D03*
X76710000Y39285000D03*
X76710000Y44235000D03*
X77980000Y44235000D03*
X79250000Y44235000D03*
X80520000Y44235000D03*
X81790000Y44235000D03*
X83060000Y44235000D03*
X84330000Y44235000D03*
%TD*%
D15*
%TO.C,R14*%
X26140000Y9935000D03*
X26140000Y11935000D03*
%TD*%
%TO.C,R13*%
X36390000Y19595000D03*
X36390000Y21595000D03*
%TD*%
%TO.C,R12*%
X38880000Y19635000D03*
X38880000Y21635000D03*
%TD*%
%TO.C,R11*%
X41380000Y19665000D03*
X41380000Y21665000D03*
%TD*%
%TO.C,R9*%
X82750000Y25635000D03*
X82750000Y27635000D03*
%TD*%
%TO.C,R8*%
X78750000Y25635000D03*
X78750000Y27635000D03*
%TD*%
%TO.C,R7*%
X75000000Y25635000D03*
X75000000Y27635000D03*
%TD*%
%TO.C,R6*%
X86250000Y25635000D03*
X86250000Y27635000D03*
%TD*%
D14*
%TO.C,R5*%
X80500000Y16835000D03*
X80500000Y19935000D03*
%TD*%
%TO.C,R4*%
X83000000Y16835000D03*
X83000000Y19935000D03*
%TD*%
D21*
%TO.C,R3*%
X78000000Y19935000D03*
X78000000Y16835000D03*
%TD*%
D14*
%TO.C,R2*%
X32800000Y74835000D03*
X32800000Y77935000D03*
%TD*%
D22*
%TO.C,R1*%
X23550000Y46085000D03*
X20450000Y46085000D03*
%TD*%
D23*
%TO.C,C6*%
X82750000Y30347500D03*
X82750000Y32422500D03*
%TD*%
%TO.C,C5*%
X78750000Y30347500D03*
X78750000Y32422500D03*
%TD*%
%TO.C,C4*%
X75000000Y30347500D03*
X75000000Y32422500D03*
%TD*%
%TO.C,C3*%
X86250000Y30347500D03*
X86250000Y32422500D03*
%TD*%
D24*
%TO.C,C2*%
X18850000Y53685000D03*
X16775000Y53685000D03*
%TD*%
D12*
%TO.C,C1*%
X29522500Y53665000D03*
X31597500Y53665000D03*
%TD*%
D17*
%TO.C,R19*%
X13850000Y27710000D03*
X15850000Y27710000D03*
%TD*%
%TO.C,R18*%
X15800000Y30585000D03*
X13800000Y30585000D03*
%TD*%
%TO.C,R17*%
X15750000Y35210000D03*
X13750000Y35210000D03*
%TD*%
%TO.C,R16*%
X16000000Y39810000D03*
X14000000Y39810000D03*
%TD*%
%TO.C,R20*%
X13975000Y23660000D03*
X15975000Y23660000D03*
%TD*%
M02*
